<?xml version="1.0" encoding="UTF-8" standalone="no"?>
<!-- Created with Inkscape (http://www.inkscape.org/) -->

<svg
   width="150mm"
   height="150mm"
   viewBox="0 0 150 150"
   version="1.1"
   id="svg1"
   xml:space="preserve"
   inkscape:version="1.3.1 (91b66b0, 2023-11-16)"
   sodipodi:docname="test.svg"
   xmlns:inkscape="http://www.inkscape.org/namespaces/inkscape"
   xmlns:sodipodi="http://sodipodi.sourceforge.net/DTD/sodipodi-0.dtd"
   xmlns="http://www.w3.org/2000/svg"
   xmlns:svg="http://www.w3.org/2000/svg"><sodipodi:namedview
     id="namedview1"
     pagecolor="#505050"
     bordercolor="#eeeeee"
     borderopacity="1"
     inkscape:showpageshadow="0"
     inkscape:pageopacity="0"
     inkscape:pagecheckerboard="0"
     inkscape:deskcolor="#505050"
     inkscape:document-units="mm"
     inkscape:zoom="0.48305007"
     inkscape:cx="194.59681"
     inkscape:cy="417.14103"
     inkscape:window-width="1440"
     inkscape:window-height="900"
     inkscape:window-x="0"
     inkscape:window-y="0"
     inkscape:window-maximized="0"
     inkscape:current-layer="layer1" /><defs
     id="defs1"><inkscape:path-effect
       effect="fillet_chamfer"
       id="path-effect20"
       is_visible="true"
       lpeversion="1"
       nodesatellites_param="F,0,0,1,0,3.96875,0,1 @ F,0,0,1,0,3.96875,0,1 @ F,0,0,1,0,3.96875,0,1"
       radius="15"
       unit="px"
       method="auto"
       mode="F"
       chamfer_steps="1"
       flexible="false"
       use_knot_distance="true"
       apply_no_radius="true"
       apply_with_radius="true"
       only_selected="false"
       hide_knots="false" /></defs><g
     inkscape:label="Layer 1"
     inkscape:groupmode="layer"
     id="layer1"><path
       id="path2"
       style="fill:#ffc433;fill-opacity:1;stroke-width:0.270668"
       inkscape:label="body"
       d="m 75.00059,11.118701 c -5.230091,-8e-5 -10.459783,2.003085 -14.467334,6.010486 L 17.129704,60.531189 c -8.0150957,8.014799 -8.0145441,20.919387 5.17e-4,28.934151 l 43.403035,43.40149 c 8.015071,8.01478 20.920089,8.0148 28.935185,0 L 132.87148,89.46534 c 8.01509,-8.014801 8.01504,-20.919393 0,-28.934151 L 89.468441,17.129704 C 85.460916,13.122322 80.230681,11.118782 75.00059,11.118701 Z m 20.65507,37.88761 a 2.8694784,2.9951693 0 0 1 1.648995,0.392741 l 18.260905,11.005013 a 2.8694784,2.9951693 0 0 1 0,5.187797 L 97.304655,76.596875 a 2.8694784,2.9951693 0 0 1 -4.30413,-2.594157 V 68.997856 H 39.398112 c -3.544402,0 -6.397542,-2.676157 -6.397542,-6.000151 0,-3.323994 2.85314,-5.999634 6.397542,-5.999634 H 93.000525 V 51.993209 A 2.8694784,2.9951693 0 0 1 95.65566,49.006311 Z M 54.34552,73.006396 a 2.8694872,2.9951693 0 0 1 2.655135,2.986898 v 5.004863 h 53.602415 c 3.54441,0 6.39754,2.675637 6.39754,5.999634 0,3.323996 -2.85313,6.00015 -6.39754,6.00015 H 57.000655 v 5.004863 a 2.8694872,2.9951693 0 0 1 -4.30413,2.594156 L 34.435624,89.591947 a 2.8694872,2.9951693 0 0 1 0,-5.187797 L 52.696525,73.399137 a 2.8694872,2.9951693 0 0 1 1.648995,-0.392741 z" /><path
       id="rect2"
       style="fill-opacity:0.0072289;stroke:#ffc433;stroke-width:5.84572"
       inkscape:label="exterior"
       d="M 93.085254,10.412591 139.5885,56.914109 c 10.01887,10.018499 10.01887,26.149358 0,36.167851 l -46.503244,46.50152 c -10.018865,10.0185 -26.150322,10.0185 -36.169192,0 L 10.412824,93.081958 c -10.01886491,-10.018494 -10.01886491,-26.149354 0,-36.167847 l 46.503242,-46.50152 c 10.018865,-10.0184932 26.150323,-10.0184932 36.169188,0 z" /><path
       id="rect17"
       style="fill:#030058;fill-opacity:1;stroke:none;stroke-width:11.4723;stroke-linecap:round;stroke-dasharray:none;stroke-opacity:1"
       d="m -68.629584,144.19933 a 2.8694784,2.9951693 0 0 0 -2.65513,2.98689 v 5.00487 h -53.602416 c -3.54441,0 -6.39754,2.67563 -6.39754,5.99963 0,3.324 2.85313,6.00015 6.39754,6.00015 h 53.602416 v 5.00486 a 2.8694784,2.9951693 0 0 0 4.30413,2.59416 l 18.2609,-11.00501 a 2.8694784,2.9951693 0 0 0 0,-5.1878 l -18.2609,-11.00501 a 2.8694784,2.9951693 0 0 0 -1.649,-0.39274 z" /></g></svg>
